# xmcd
#
# Track frame offsets:
#	150
#	5915
#	24686
#	45238
#	70384
#	95646
#	118273
#	140250
#	161257
#
# Disc length: 2569 seconds
#
# Revision: 1
# Processed by: cddbd v1.5.2PL0 Copyright (c) Steve Scherf et al.
# Submitted via: audiograbber 1.83.01
#
DISCID=760a0709
DTITLE=Urban Verbs - Early Damage
DYEAR=1981
DGENRE=Rock
TTITLE0=When The Dance Is Over
TTITLE1=Jar My Blood
TTITLE2=Acceleration
TTITLE3=Early Damage
TTITLE4=Promise
TTITLE5=For Your Eyes Only
TTITLE6=Business and The Rational Mind
TTITLE7=In The Heat
TTITLE8=Terminal Bar
EXTD=
EXTT0=
EXTT1=
EXTT2=
EXTT3=
EXTT4=
EXTT5=
EXTT6=
EXTT7=
EXTT8=
PLAYORDER=
